solid JHeadMont
facet normal 4.7766707905866e-014 -0.623489223763091 -0.781831943483571
   outer loop
      vertex 185.43706069979 364.042544519449 17.6008245534957
      vertex 175.819560699828 362.685644519454 18.6829145534914
      vertex 174.833660699832 364.042544519448 17.6008245534957
   endloop
endfacet
facet normal 4.7766707905866e-014 -0.623489223763091 -0.781831943483571
   outer loop
      vertex 175.819560699828 362.685644519454 18.6829145534914
      vertex 185.43706069979 364.042544519449 17.6008245534957
      vertex 185.43706069979 362.685644519454 18.6829145534914
   endloop
endfacet
facet normal 7.67008149547739e-014 -1.0 -1.80248951379001e-030
   outer loop
      vertex 185.43706069979 364.042544519449 15.8652845535027
      vertex 174.833660699832 364.042544519448 17.6008245534957
      vertex 174.833660699832 364.042544519448 15.8652845535027
   endloop
endfacet
facet normal 7.67008149547739e-014 -1.0 -1.80248951379001e-030
   outer loop
      vertex 174.833660699832 364.042544519448 17.6008245534957
      vertex 185.43706069979 364.042544519449 15.8652845535027
      vertex 185.43706069979 364.042544519449 17.6008245534957
   endloop
endfacet
facet normal -6.75662096611465e-014 0.900968635552079 -0.43388422159768
   outer loop
      vertex 185.43706069979 360.993624519461 18.296714553493
      vertex 178.475560699818 360.240604519464 16.7330545534992
      vertex 177.639260699821 360.993624519461 18.296714553493
   endloop
endfacet
facet normal -6.75662096611465e-014 0.900968635552079 -0.43388422159768
   outer loop
      vertex 178.475560699818 360.240604519464 16.7330545534992
      vertex 185.43706069979 360.993624519461 18.296714553493
      vertex 185.43706069979 360.240604519464 16.7330545534992
   endloop
endfacet
facet normal -6.7612389779655e-014 0.900968635552079 0.43388422159768
   outer loop
      vertex 178.475560699818 360.240604519464 16.7330545534992
      vertex 185.43706069979 360.993624519461 15.1693945535055
      vertex 177.639260699821 360.993624519461 15.1693945535055
   endloop
endfacet
facet normal -6.7612389779655e-014 0.900968635552079 0.43388422159768
   outer loop
      vertex 185.43706069979 360.993624519461 15.1693945535055
      vertex 178.475560699818 360.240604519464 16.7330545534992
      vertex 185.43706069979 360.240604519464 16.7330545534992
   endloop
endfacet
facet normal 2.42715124855473e-009 0.222527194241109 0.974926483291525
   outer loop
      vertex 175.932060699828 362.530814519455 14.8185345535069
      vertex 185.43706069979 362.685644519454 14.783194553507
      vertex 175.819560699828 362.685644519454 14.783194553507
   endloop
endfacet
facet normal 2.42715124855473e-009 0.222527194241109 0.974926483291525
   outer loop
      vertex 185.43706069979 362.685644519454 14.783194553507
      vertex 175.932060699828 362.530814519455 14.8185345535069
      vertex 185.43706069979 362.636776542259 14.7943486261058
   endloop
endfacet
facet normal 4.97758359995552e-008 0.22252501704853 0.974926980233673
   outer loop
      vertex 185.43706069979 361.478797573302 15.0586548859675
      vertex 185.43706069979 362.636776542259 14.7943486261058
      vertex 175.932060699828 362.530814519455 14.8185345535069
   endloop
endfacet
facet normal -0.499996134016582 0.866027635799501 0.0
   outer loop
      vertex 181.819160699802 390.227604519344 19.8830545534832
      vertex 178.650860699815 388.398404519351 12.7330545535152
      vertex 178.650860699815 388.398404519351 19.8830545534832
   endloop
endfacet
facet normal -0.499996134016582 0.866027635799501 0.0
   outer loop
      vertex 178.650860699815 388.398404519351 12.7330545535152
      vertex 181.819160699802 390.227604519344 19.8830545534832
      vertex 181.819160699802 390.227604519344 12.7330545535152
   endloop
endfacet
facet normal -0.669127811339149 0.743147342103181 -4.17828600662312e-006
   outer loop
      vertex 178.650860699815 388.398404519351 12.7330545535152
      vertex 175.932060699826 385.950404519361 12.7330545535152
      vertex 177.700260699819 387.542504519354 15.8652845535027
   endloop
endfacet
facet normal -0.669125651610514 0.743149286695497 -6.3859200561231e-006
   outer loop
      vertex 177.700260699819 387.542504519354 15.8652845535027
      vertex 175.932060699826 385.950404519361 12.7330545535152
      vertex 176.193260699825 386.18560451936 14.783194553507
   endloop
endfacet
facet normal -0.809023072382754 0.587776886455191 1.00703102470104e-005
   outer loop
      vertex 174.87366069983 384.493604519366 15.1693945535055
      vertex 175.932060699826 385.950404519361 14.8368945535068
      vertex 173.781660699835 382.990604519372 12.7330545535152
   endloop
endfacet
facet normal -0.809019423610301 0.58778190872232 -5.69397106241984e-008
   outer loop
      vertex 173.781660699835 382.990604519372 19.8830545534832
      vertex 174.326560699833 383.740604519369 16.7330545534992
      vertex 173.781660699835 382.990604519372 12.7330545535152
   endloop
endfacet
facet normal -0.809019423610301 0.58778190872232 -5.69397106241984e-008
   outer loop
      vertex 174.326560699833 383.740604519369 16.7330545534992
      vertex 173.781660699835 382.990604519372 19.8830545534832
      vertex 174.87366069983 384.493604519366 18.296714553493
   endloop
endfacet
facet normal -0.809019423610301 0.58778190872232 -5.69397106241984e-008
   outer loop
      vertex 174.87366069983 384.493604519366 18.296714553493
      vertex 173.781660699835 382.990604519372 19.8830545534832
      vertex 175.932060699826 385.950404519361 18.6292145534916
   endloop
endfacet
facet normal -0.809019423610301 0.58778190872232 -5.69397106241984e-008
   outer loop
      vertex 175.932060699826 385.950404519361 18.6292145534916
      vertex 173.781660699835 382.990604519372 19.8830545534832
      vertex 175.932060699826 385.950404519361 19.8830545534832
   endloop
endfacet
facet normal -0.809013030037558 0.587790708688646 -2.9578622729855e-006
   outer loop
      vertex 174.326560699833 383.740604519369 16.7330545534992
      vertex 174.87366069983 384.493604519366 15.1693945535055
      vertex 173.781660699835 382.990604519372 12.7330545535152
   endloop
endfacet
facet normal -0.9135321801276 0.406766463546564 2.26651012116878e-006
   outer loop
      vertex 172.52076069984 380.158804519384 15.2930545534992
      vertex 173.781660699835 382.990604519372 12.7330545535152
      vertex 172.52076069984 380.158804519384 12.7330545535152
   endloop
endfacet
facet normal -0.9135321801276 0.406766463546564 2.26651012116878e-006
   outer loop
      vertex 173.781660699835 382.990604519372 12.7330545535152
      vertex 172.52076069984 380.158804519384 15.2930545534992
      vertex 173.644760699835 382.683104519374 15.2930545534992
   endloop
endfacet
facet normal -0.9135321801276 0.406766463546564 2.26651012116878e-006
   outer loop
      vertex 173.781660699835 382.990604519372 12.7330545535152
      vertex 173.644760699835 382.683104519374 15.2930545534992
      vertex 173.644760699835 382.683104519374 16.7330545534992
   endloop
endfacet
facet normal -0.913554090800468 0.406717252131909 1.33057460742361e-018
   outer loop
      vertex 173.644760699835 382.683104519374 16.7330545534992
      vertex 173.781660699835 382.990604519372 19.8830545534832
      vertex 173.781660699835 382.990604519372 12.7330545535152
   endloop
endfacet
facet normal -0.913554090800468 0.406717252131909 1.33057460742361e-018
   outer loop
      vertex 173.781660699835 382.990604519372 19.8830545534832
      vertex 173.644760699835 382.683104519374 16.7330545534992
      vertex 173.644760699835 382.683104519374 19.8830545534832
   endloop
endfacet
facet normal 8.03466481247715e-014 -1.0 0.0
   outer loop
      vertex 173.924660699835 380.158804519384 12.7330545535152
      vertex 172.52076069984 380.158804519384 15.2930545534992
      vertex 172.52076069984 380.158804519384 12.7330545535152
   endloop
endfacet
facet normal 8.03466481247715e-014 -1.0 0.0
   outer loop
      vertex 172.52076069984 380.158804519384 15.2930545534992
      vertex 173.924660699835 380.158804519384 12.7330545535152
      vertex 173.924660699835 380.158804519384 15.2930545534992
   endloop
endfacet
facet normal -0.969396092017329 -0.245501968997258 0.0
   outer loop
      vertex 178.916560699815 374.736084519406 15.2930545534992
      vertex 178.431660699817 376.650774519398 12.7330545535152
      vertex 178.916560699815 374.736084519406 12.7330545535152
   endloop
endfacet
facet normal -0.969396092017329 -0.245501968997258 0.0
   outer loop
      vertex 178.431660699817 376.650774519398 12.7330545535152
      vertex 178.916560699815 374.736084519406 15.2930545534992
      vertex 178.431660699817 376.650774519398 15.2930545534992
   endloop
endfacet
facet normal -0.735729353383307 0.677275659218741 0.0
   outer loop
      vertex 176.622360699825 369.505761519426 15.2930545534992
      vertex 177.960060699819 370.958914519421 12.7330545535152
      vertex 176.622360699825 369.505761519426 12.7330545535152
   endloop
endfacet
facet normal -0.735729353383307 0.677275659218741 0.0
   outer loop
      vertex 177.960060699819 370.958914519421 12.7330545535152
      vertex 176.622360699825 369.505761519426 15.2930545534992
      vertex 177.960060699819 370.958914519421 15.2930545534992
   endloop
endfacet
facet normal -0.475942886072285 0.879476190238931 0.0
   outer loop
      vertex 176.622360699825 369.505761519426 15.2930545534992
      vertex 174.885260699832 368.56570151943 12.7330545535152
      vertex 174.885260699832 368.56570151943 15.2930545534992
   endloop
endfacet
facet normal -0.475942886072285 0.879476190238931 0.0
   outer loop
      vertex 174.885260699832 368.56570151943 12.7330545535152
      vertex 176.622360699825 369.505761519426 15.2930545534992
      vertex 176.622360699825 369.505761519426 12.7330545535152
   endloop
endfacet
facet normal -0.164594550263509 0.986361310080416 0.0
   outer loop
      vertex 174.885260699832 368.56570151943 15.2930545534992
      vertex 172.937060699839 368.240604519431 12.7330545535152
      vertex 172.937060699839 368.240604519431 15.2930545534992
   endloop
endfacet
facet normal -0.164594550263509 0.986361310080416 0.0
   outer loop
      vertex 172.937060699839 368.240604519431 12.7330545535152
      vertex 174.885260699832 368.56570151943 15.2930545534992
      vertex 174.885260699832 368.56570151943 12.7330545535152
   endloop
endfacet
facet normal -0.104124062018993 -0.994564316526923 0.0
   outer loop
      vertex 185.43706069979 357.108504519477 12.7330545535152
      vertex 185.298560699791 357.123004519477 19.8830545534832
      vertex 185.298560699791 357.123004519477 12.7330545535152
   endloop
endfacet
facet normal -0.104124062018993 -0.994564316526923 0.0
   outer loop
      vertex 185.298560699791 357.123004519477 19.8830545534832
      vertex 185.43706069979 357.108504519477 12.7330545535152
      vertex 185.43706069979 357.108504519477 19.8830545534832
   endloop
endfacet
facet normal -0.91354191409077 -0.406744601925808 -1.89416492149043e-006
   outer loop
      vertex 173.781660699836 365.490604519442 12.7330545535152
      vertex 173.634060699837 365.822074519441 15.2930545534992
      vertex 172.526760699841 368.309072519431 12.7330545535152
   endloop
endfacet
facet normal -0.91354191409077 -0.406744601925808 -1.89416492149043e-006
   outer loop
      vertex 173.634060699837 365.822074519441 15.2930545534992
      vertex 173.781660699836 365.490604519442 12.7330545535152
      vertex 173.634060699837 365.822074519441 16.7330545534992
   endloop
endfacet
facet normal -0.91354191409077 -0.406744601925808 -1.89416492149043e-006
   outer loop
      vertex 172.526760699841 368.309072519431 15.2930545534992
      vertex 172.526760699841 368.309072519431 12.7330545535152
      vertex 173.634060699837 365.822074519441 15.2930545534992
   endloop
endfacet
facet normal -0.342011554560396 0.939695746796367 0.0
   outer loop
      vertex 176.751860699824 366.644724519438 19.8830545534832
      vertex 174.897260699832 365.96972451944 15.2930545534992
      vertex 174.897260699832 365.96972451944 19.8830545534832
   endloop
endfacet
facet normal -0.342011554560396 0.939695746796367 0.0
   outer loop
      vertex 174.897260699832 365.96972451944 15.2930545534992
      vertex 176.751860699824 366.644724519438 19.8830545534832
      vertex 176.751860699824 366.644724519438 15.2930545534992
   endloop
endfacet
facet normal -0.727387448740245 0.686227002831539 0.0
   outer loop
      vertex 178.400760699818 367.729224519434 19.8830545534832
      vertex 179.755060699812 369.164756519428 15.2930545534992
      vertex 178.400760699818 367.729224519434 15.2930545534992
   endloop
endfacet
facet normal -0.727387448740245 0.686227002831539 0.0
   outer loop
      vertex 179.755060699812 369.164756519428 15.2930545534992
      vertex 178.400760699818 367.729224519434 19.8830545534832
      vertex 179.755060699812 369.164756519428 19.8830545534832
   endloop
endfacet
facet normal -0.957979688875746 0.286836043239912 0.0
   outer loop
      vertex 180.741860699808 370.873924519421 19.8830545534832
      vertex 181.307960699806 372.764594519414 15.2930545534992
      vertex 180.741860699808 370.873924519421 15.2930545534992
   endloop
endfacet
facet normal -0.957979688875746 0.286836043239912 0.0
   outer loop
      vertex 181.307960699806 372.764594519414 15.2930545534992
      vertex 180.741860699808 370.873924519421 19.8830545534832
      vertex 181.307960699806 372.764594519414 19.8830545534832
   endloop
endfacet
facet normal -0.984808543220866 -0.173643696111309 0.0
   outer loop
      vertex 181.422660699805 374.734834519406 19.8830545534832
      vertex 181.079960699806 376.678434519398 15.2930545534992
      vertex 181.422660699805 374.734834519406 15.2930545534992
   endloop
endfacet
facet normal -0.984808543220866 -0.173643696111309 0.0
   outer loop
      vertex 181.079960699806 376.678434519398 15.2930545534992
      vertex 181.422660699805 374.734834519406 19.8830545534832
      vertex 181.079960699806 376.678434519398 19.8830545534832
   endloop
endfacet
facet normal -0.80214122094059 -0.597134374883861 0.0
   outer loop
      vertex 180.298260699809 378.490604519391 19.8830545534832
      vertex 179.119760699814 380.073704519385 15.2930545534992
      vertex 180.298260699809 378.490604519391 15.2930545534992
   endloop
endfacet
facet normal -0.80214122094059 -0.597134374883861 0.0
   outer loop
      vertex 179.119760699814 380.073704519385 15.2930545534992
      vertex 180.298260699809 378.490604519391 19.8830545534832
      vertex 179.119760699814 380.073704519385 19.8830545534832
   endloop
endfacet
facet normal -0.448834298626369 -0.89361500232291 0.0
   outer loop
      vertex 177.60786069982 381.34220451938 15.2930545534992
      vertex 175.844260699827 382.228004519376 19.8830545534832
      vertex 175.844260699827 382.228004519376 15.2930545534992
   endloop
endfacet
facet normal -0.448834298626369 -0.89361500232291 0.0
   outer loop
      vertex 175.844260699827 382.228004519376 19.8830545534832
      vertex 177.60786069982 381.34220451938 15.2930545534992
      vertex 177.60786069982 381.34220451938 19.8830545534832
   endloop
endfacet
facet normal 2.42715143194224e-009 0.222527194241114 -0.974926483291524
   outer loop
      vertex 185.43706069979 362.685644519454 18.6829145534914
      vertex 175.932060699828 362.530814519455 18.6475745534916
      vertex 175.819560699828 362.685644519454 18.6829145534914
   endloop
endfacet
facet normal 2.42715143194224e-009 0.222527194241114 -0.974926483291524
   outer loop
      vertex 175.932060699828 362.530814519455 18.6475745534916
      vertex 185.43706069979 362.685644519454 18.6829145534914
      vertex 185.43706069979 362.636776542259 18.6717604808926
   endloop
endfacet
facet normal -0.230595164489356 -0.973049777819268 0.0
   outer loop
      vertex 175.844260699827 382.228004519376 15.2930545534992
      vertex 173.923860699834 382.683104519374 19.8830545534832
      vertex 173.923860699834 382.683104519374 15.2930545534992
   endloop
endfacet
facet normal -0.230595164489356 -0.973049777819268 0.0
   outer loop
      vertex 173.923860699834 382.683104519374 19.8830545534832
      vertex 175.844260699827 382.228004519376 15.2930545534992
      vertex 175.844260699827 382.228004519376 19.8830545534832
   endloop
endfacet
facet normal 8.08302825527539e-014 -1.0 0.0
   outer loop
      vertex 173.923860699834 382.683104519374 15.2930545534992
      vertex 173.644760699835 382.683104519374 16.7330545534992
      vertex 173.644760699835 382.683104519374 15.2930545534992
   endloop
endfacet
facet normal 8.08302825527539e-014 -1.0 0.0
   outer loop
      vertex 173.644760699835 382.683104519374 16.7330545534992
      vertex 173.923860699834 382.683104519374 15.2930545534992
      vertex 173.644760699835 382.683104519374 19.8830545534832
   endloop
endfacet
facet normal 8.08302825527539e-014 -1.0 0.0
   outer loop
      vertex 173.644760699835 382.683104519374 19.8830545534832
      vertex 173.923860699834 382.683104519374 15.2930545534992
      vertex 173.923860699834 382.683104519374 19.8830545534832
   endloop
endfacet
facet normal 4.76557441497166e-014 -0.623489223763091 0.781831943483571
   outer loop
      vertex 175.819560699828 362.685644519454 14.783194553507
      vertex 185.43706069979 364.042544519449 15.8652845535027
      vertex 174.833660699832 364.042544519448 15.8652845535027
   endloop
endfacet
facet normal 4.76557441497166e-014 -0.623489223763091 0.781831943483571
   outer loop
      vertex 185.43706069979 364.042544519449 15.8652845535027
      vertex 175.819560699828 362.685644519454 14.783194553507
      vertex 185.43706069979 362.685644519454 14.783194553507
   endloop
endfacet
facet normal -0.309035390890336 0.951050538708253 0.0
   outer loop
      vertex 185.298560699788 391.35820451934 19.8830545534832
      vertex 181.819160699802 390.227604519344 12.7330545535152
      vertex 181.819160699802 390.227604519344 19.8830545534832
   endloop
endfacet
facet normal -0.309035390890336 0.951050538708253 0.0
   outer loop
      vertex 181.819160699802 390.227604519344 12.7330545535152
      vertex 185.298560699788 391.35820451934 19.8830545534832
      vertex 185.298560699788 391.35820451934 12.7330545535152
   endloop
endfacet
facet normal -0.669153331498 0.743124363041024 1.01673131024646e-017
   outer loop
      vertex 176.193260699825 386.18560451936 14.783194553507
      vertex 175.932060699826 385.950404519361 12.7330545535152
      vertex 175.932060699826 385.950404519361 14.8368945535068
   endloop
endfacet
facet normal -0.669127165167298 0.743147923925397 7.40928011434261e-007
   outer loop
      vertex 178.650860699815 388.398404519351 19.8830545534832
      vertex 175.932060699826 385.950404519361 18.6292145534916
      vertex 175.932060699826 385.950404519361 19.8830545534832
   endloop
endfacet
facet normal -0.669127165167298 0.743147923925397 7.40928011434261e-007
   outer loop
      vertex 175.932060699826 385.950404519361 18.6292145534916
      vertex 178.650860699815 388.398404519351 19.8830545534832
      vertex 176.193260699825 386.18560451936 18.6829145534914
   endloop
endfacet
facet normal -0.669127165167298 0.743147923925397 7.40928011434261e-007
   outer loop
      vertex 176.193260699825 386.18560451936 18.6829145534914
      vertex 178.650860699815 388.398404519351 19.8830545534832
      vertex 177.700260699819 387.542504519354 17.6008245534957
   endloop
endfacet
facet normal -0.669127165167298 0.743147923925397 7.40928011434261e-007
   outer loop
      vertex 177.700260699819 387.542504519354 17.6008245534957
      vertex 178.650860699815 388.398404519351 19.8830545534832
      vertex 177.700260699819 387.542504519354 15.8652845535027
   endloop
endfacet
facet normal -0.669127165167298 0.743147923925397 7.40928011434261e-007
   outer loop
      vertex 177.700260699819 387.542504519354 15.8652845535027
      vertex 178.650860699815 388.398404519351 19.8830545534832
      vertex 178.650860699815 388.398404519351 12.7330545535152
   endloop
endfacet
facet normal -0.809019668604387 0.587781571513813 0.0
   outer loop
      vertex 175.932060699826 385.950404519361 14.8368945535068
      vertex 175.932060699826 385.950404519361 12.7330545535152
      vertex 173.781660699835 382.990604519372 12.7330545535152
   endloop
endfacet
facet normal -0.324735910406048 -0.94580473063564 0.0
   outer loop
      vertex 175.792760699827 379.517404519387 12.7330545535152
      vertex 173.924660699835 380.158804519384 15.2930545534992
      vertex 173.924660699835 380.158804519384 12.7330545535152
   endloop
endfacet
facet normal -0.324735910406048 -0.94580473063564 0.0
   outer loop
      vertex 173.924660699835 380.158804519384 15.2930545534992
      vertex 175.792760699827 379.517404519387 12.7330545535152
      vertex 175.792760699827 379.517404519387 15.2930545534992
   endloop
endfacet
facet normal -0.614213635397526 -0.789139791223174 0.0
   outer loop
      vertex 177.351360699821 378.304294519392 12.7330545535152
      vertex 175.792760699827 379.517404519387 15.2930545534992
      vertex 175.792760699827 379.517404519387 12.7330545535152
   endloop
endfacet
facet normal -0.614213635397526 -0.789139791223174 0.0
   outer loop
      vertex 175.792760699827 379.517404519387 15.2930545534992
      vertex 177.351360699821 378.304294519392 12.7330545535152
      vertex 177.351360699821 378.304294519392 15.2930545534992
   endloop
endfacet
facet normal -0.837166138195824 -0.546948678632914 0.0
   outer loop
      vertex 178.431660699817 376.650774519398 15.2930545534992
      vertex 177.351360699821 378.304294519392 12.7330545535152
      vertex 178.431660699817 376.650774519398 12.7330545535152
   endloop
endfacet
facet normal -0.837166138195824 -0.546948678632914 0.0
   outer loop
      vertex 177.351360699821 378.304294519392 12.7330545535152
      vertex 178.431660699817 376.650774519398 15.2930545534992
      vertex 177.351360699821 378.304294519392 15.2930545534992
   endloop
endfacet
facet normal -0.99658471990387 0.0825766071846375 0.0
   outer loop
      vertex 178.753460699816 372.767694519414 15.2930545534992
      vertex 178.916560699815 374.736084519406 12.7330545535152
      vertex 178.753460699816 372.767694519414 12.7330545535152
   endloop
endfacet
facet normal -0.99658471990387 0.0825766071846375 0.0
   outer loop
      vertex 178.916560699815 374.736084519406 12.7330545535152
      vertex 178.753460699816 372.767694519414 15.2930545534992
      vertex 178.916560699815 374.736084519406 15.2930545534992
   endloop
endfacet
facet normal -0.915774159037329 0.401693527007187 0.0
   outer loop
      vertex 177.960060699819 370.958914519421 15.2930545534992
      vertex 178.753460699816 372.767694519414 12.7330545535152
      vertex 177.960060699819 370.958914519421 12.7330545535152
   endloop
endfacet
facet normal -0.915774159037329 0.401693527007187 0.0
   outer loop
      vertex 178.753460699816 372.767694519414 12.7330545535152
      vertex 177.960060699819 370.958914519421 15.2930545534992
      vertex 178.753460699816 372.767694519414 15.2930545534992
   endloop
endfacet
facet normal 0.164597021552878 0.986360897692078 0.0
   outer loop
      vertex 172.937060699839 368.240604519431 15.2930545534992
      vertex 172.526760699841 368.309072519431 12.7330545535152
      vertex 172.526760699841 368.309072519431 15.2930545534992
   endloop
endfacet
facet normal 0.164597021552878 0.986360897692078 0.0
   outer loop
      vertex 172.526760699841 368.309072519431 12.7330545535152
      vertex 172.937060699839 368.240604519431 15.2930545534992
      vertex 172.937060699839 368.240604519431 12.7330545535152
   endloop
endfacet
facet normal -0.913524926723489 -0.4067827531433 1.14505711657334e-018
   outer loop
      vertex 173.781660699836 365.490604519442 19.8830545534832
      vertex 173.634060699837 365.822074519441 16.7330545534992
      vertex 173.781660699836 365.490604519442 12.7330545535152
   endloop
endfacet
facet normal -0.913524926723489 -0.4067827531433 1.14505711657334e-018
   outer loop
      vertex 173.634060699837 365.822074519441 16.7330545534992
      vertex 173.781660699836 365.490604519442 19.8830545534832
      vertex 173.634060699837 365.822074519441 19.8830545534832
   endloop
endfacet
facet normal -0.809018724125853 -0.587782871203878 -1.82511165992889e-005
   outer loop
      vertex 174.833660699832 364.042544519448 15.8652845535027
      vertex 173.781660699836 365.490604519442 12.7330545535152
      vertex 175.932060699828 362.530814519455 12.7330545535152
   endloop
endfacet
facet normal -0.808993587306176 -0.587817468009828 0.0
   outer loop
      vertex 175.932060699828 362.530814519455 14.8185345535069
      vertex 175.819560699828 362.685644519454 14.783194553507
      vertex 175.932060699828 362.530814519455 12.7330545535152
   endloop
endfacet
facet normal -0.809019812380384 -0.58778137361238 3.21730121292837e-006
   outer loop
      vertex 175.932060699828 362.530814519455 19.8830545534832
      vertex 175.819560699828 362.685644519454 18.6829145534914
      vertex 175.932060699828 362.530814519455 18.6475745534916
   endloop
endfacet
facet normal -0.809019812380384 -0.58778137361238 3.21730121292837e-006
   outer loop
      vertex 174.833660699832 364.042544519448 15.8652845535027
      vertex 173.781660699836 365.490604519442 19.8830545534832
      vertex 173.781660699836 365.490604519442 12.7330545535152
   endloop
endfacet
facet normal -0.809019812380384 -0.58778137361238 3.21730121292837e-006
   outer loop
      vertex 173.781660699836 365.490604519442 19.8830545534832
      vertex 174.833660699832 364.042544519448 15.8652845535027
      vertex 174.833660699832 364.042544519448 17.6008245534957
   endloop
endfacet
facet normal -0.809019812380384 -0.58778137361238 3.21730121292837e-006
   outer loop
      vertex 173.781660699836 365.490604519442 19.8830545534832
      vertex 174.833660699832 364.042544519448 17.6008245534957
      vertex 175.819560699828 362.685644519454 18.6829145534914
   endloop
endfacet
facet normal -0.809019812380384 -0.58778137361238 3.21730121292837e-006
   outer loop
      vertex 173.781660699836 365.490604519442 19.8830545534832
      vertex 175.819560699828 362.685644519454 18.6829145534914
      vertex 175.932060699828 362.530814519455 19.8830545534832
   endloop
endfacet
facet normal -0.809002069248884 -0.587805794416157 -1.34704998818679e-006
   outer loop
      vertex 174.833660699832 364.042544519448 15.8652845535027
      vertex 175.932060699828 362.530814519455 12.7330545535152
      vertex 175.819560699828 362.685644519454 14.783194553507
   endloop
endfacet
facet normal -0.66912932089081 -0.743145982916011 9.77966480140994e-017
   outer loop
      vertex 178.650860699817 360.082804519465 12.7330545535152
      vertex 175.932060699828 362.530814519455 14.8185345535069
      vertex 175.932060699828 362.530814519455 12.7330545535152
   endloop
endfacet
facet normal -0.669128854196937 -0.743146403090027 -7.44643328387512e-006
   outer loop
      vertex 178.650860699817 360.082804519465 12.7330545535152
      vertex 178.475560699818 360.240604519464 16.7330545534992
      vertex 177.639260699821 360.993624519461 15.1693945535055
   endloop
endfacet
facet normal -0.669134167551942 -0.743141618861216 -1.14411799976051e-005
   outer loop
      vertex 178.650860699817 360.082804519465 12.7330545535152
      vertex 177.639260699821 360.993624519461 15.1693945535055
      vertex 175.932060699828 362.530814519455 14.8185345535069
   endloop
endfacet
facet normal -0.6691302650989 -0.743145132748687 7.82403965731976e-007
   outer loop
      vertex 177.639260699821 360.993624519461 18.296714553493
      vertex 175.932060699828 362.530814519455 19.8830545534832
      vertex 175.932060699828 362.530814519455 18.6475745534916
   endloop
endfacet
facet normal -0.6691302650989 -0.743145132748687 7.82403965731976e-007
   outer loop
      vertex 175.932060699828 362.530814519455 19.8830545534832
      vertex 177.639260699821 360.993624519461 18.296714553493
      vertex 178.650860699817 360.082804519465 19.8830545534832
   endloop
endfacet
facet normal -0.6691302650989 -0.743145132748687 7.82403965731976e-007
   outer loop
      vertex 178.650860699817 360.082804519465 19.8830545534832
      vertex 177.639260699821 360.993624519461 18.296714553493
      vertex 178.475560699818 360.240604519464 16.7330545534992
   endloop
endfacet
facet normal -0.6691302650989 -0.743145132748687 7.82403965731976e-007
   outer loop
      vertex 178.650860699817 360.082804519465 19.8830545534832
      vertex 178.475560699818 360.240604519464 16.7330545534992
      vertex 178.650860699817 360.082804519465 12.7330545535152
   endloop
endfacet
facet normal -0.499996134016447 -0.866027635799579 0.0
   outer loop
      vertex 181.819160699805 358.253604519472 12.7330545535152
      vertex 178.650860699817 360.082804519465 19.8830545534832
      vertex 178.650860699817 360.082804519465 12.7330545535152
   endloop
endfacet
facet normal -0.499996134016447 -0.866027635799579 0.0
   outer loop
      vertex 178.650860699817 360.082804519465 19.8830545534832
      vertex 181.819160699805 358.253604519472 12.7330545535152
      vertex 181.819160699805 358.253604519472 19.8830545534832
   endloop
endfacet
facet normal -0.309035390890185 -0.951050538708302 0.0
   outer loop
      vertex 185.298560699791 357.123004519477 12.7330545535152
      vertex 181.819160699805 358.253604519472 19.8830545534832
      vertex 181.819160699805 358.253604519472 12.7330545535152
   endloop
endfacet
facet normal -0.309035390890185 -0.951050538708302 0.0
   outer loop
      vertex 181.819160699805 358.253604519472 19.8830545534832
      vertex 185.298560699791 357.123004519477 12.7330545535152
      vertex 185.298560699791 357.123004519477 19.8830545534832
   endloop
endfacet
facet normal -0.116095315139347 0.9932380771007 0.0
   outer loop
      vertex 174.897260699832 365.96972451944 19.8830545534832
      vertex 173.634060699837 365.822074519441 16.7330545534992
      vertex 173.634060699837 365.822074519441 19.8830545534832
   endloop
endfacet
facet normal -0.116095315139347 0.9932380771007 0.0
   outer loop
      vertex 173.634060699837 365.822074519441 16.7330545534992
      vertex 174.897260699832 365.96972451944 19.8830545534832
      vertex 173.634060699837 365.822074519441 15.2930545534992
   endloop
endfacet
facet normal -0.116095315139347 0.9932380771007 0.0
   outer loop
      vertex 173.634060699837 365.822074519441 15.2930545534992
      vertex 174.897260699832 365.96972451944 19.8830545534832
      vertex 174.897260699832 365.96972451944 15.2930545534992
   endloop
endfacet
facet normal -0.549509476564936 0.835487483547976 0.0
   outer loop
      vertex 178.400760699818 367.729224519434 19.8830545534832
      vertex 176.751860699824 366.644724519438 15.2930545534992
      vertex 176.751860699824 366.644724519438 19.8830545534832
   endloop
endfacet
facet normal -0.549509476564936 0.835487483547976 0.0
   outer loop
      vertex 176.751860699824 366.644724519438 15.2930545534992
      vertex 178.400760699818 367.729224519434 19.8830545534832
      vertex 178.400760699818 367.729224519434 15.2930545534992
   endloop
endfacet
facet normal -0.866022903636861 0.500004330357628 0.0
   outer loop
      vertex 179.755060699812 369.164756519428 19.8830545534832
      vertex 180.741860699808 370.873924519421 15.2930545534992
      vertex 179.755060699812 369.164756519428 15.2930545534992
   endloop
endfacet
facet normal -0.866022903636861 0.500004330357628 0.0
   outer loop
      vertex 180.741860699808 370.873924519421 15.2930545534992
      vertex 179.755060699812 369.164756519428 19.8830545534832
      vertex 180.741860699808 370.873924519421 19.8830545534832
   endloop
endfacet
facet normal -0.998309728860528 0.058117856657132 0.0
   outer loop
      vertex 181.307960699806 372.764594519414 19.8830545534832
      vertex 181.422660699805 374.734834519406 15.2930545534992
      vertex 181.307960699806 372.764594519414 15.2930545534992
   endloop
endfacet
facet normal -0.998309728860528 0.058117856657132 0.0
   outer loop
      vertex 181.422660699805 374.734834519406 15.2930545534992
      vertex 181.307960699806 372.764594519414 19.8830545534832
      vertex 181.422660699805 374.734834519406 19.8830545534832
   endloop
endfacet
facet normal -0.104124062019153 0.994564316526906 0.0
   outer loop
      vertex 185.437060699788 391.37270451934 19.8830545534832
      vertex 185.298560699788 391.35820451934 12.7330545535152
      vertex 185.298560699788 391.35820451934 19.8830545534832
   endloop
endfacet
facet normal -0.104124062019153 0.994564316526906 0.0
   outer loop
      vertex 185.298560699788 391.35820451934 12.7330545535152
      vertex 185.437060699788 391.37270451934 19.8830545534832
      vertex 185.437060699788 391.37270451934 12.7330545535152
   endloop
endfacet
facet normal 0.0 0.0 -1.0
   outer loop
      vertex 185.43706069979 357.108504519477 12.7330545535152
      vertex 185.298560699788 391.35820451934 12.7330545535152
      vertex 185.437060699788 391.37270451934 12.7330545535152
   endloop
endfacet
facet normal 0.0 0.0 -1.0
   outer loop
      vertex 185.298560699788 391.35820451934 12.7330545535152
      vertex 185.43706069979 357.108504519477 12.7330545535152
      vertex 181.819160699802 390.227604519344 12.7330545535152
   endloop
endfacet
facet normal 0.0 0.0 -1.0
   outer loop
      vertex 181.819160699802 390.227604519344 12.7330545535152
      vertex 185.43706069979 357.108504519477 12.7330545535152
      vertex 178.650860699815 388.398404519351 12.7330545535152
   endloop
endfacet
facet normal 0.0 0.0 -1.0
   outer loop
      vertex 178.650860699815 388.398404519351 12.7330545535152
      vertex 185.43706069979 357.108504519477 12.7330545535152
      vertex 175.932060699826 385.950404519361 12.7330545535152
   endloop
endfacet
facet normal 0.0 0.0 -1.0
   outer loop
      vertex 175.932060699826 385.950404519361 12.7330545535152
      vertex 185.43706069979 357.108504519477 12.7330545535152
      vertex 178.431660699817 376.650774519398 12.7330545535152
   endloop
endfacet
facet normal 0.0 0.0 -1.0
   outer loop
      vertex 175.932060699826 385.950404519361 12.7330545535152
      vertex 178.431660699817 376.650774519398 12.7330545535152
      vertex 177.351360699821 378.304294519392 12.7330545535152
   endloop
endfacet
facet normal 0.0 0.0 -1.0
   outer loop
      vertex 175.932060699826 385.950404519361 12.7330545535152
      vertex 177.351360699821 378.304294519392 12.7330545535152
      vertex 173.781660699835 382.990604519372 12.7330545535152
   endloop
endfacet
facet normal 0.0 0.0 -1.0
   outer loop
      vertex 173.781660699835 382.990604519372 12.7330545535152
      vertex 177.351360699821 378.304294519392 12.7330545535152
      vertex 175.792760699827 379.517404519387 12.7330545535152
   endloop
endfacet
facet normal 0.0 0.0 -1.0
   outer loop
      vertex 173.781660699835 382.990604519372 12.7330545535152
      vertex 175.792760699827 379.517404519387 12.7330545535152
      vertex 173.924660699835 380.158804519384 12.7330545535152
   endloop
endfacet
facet normal 0.0 0.0 -1.0
   outer loop
      vertex 178.431660699817 376.650774519398 12.7330545535152
      vertex 185.43706069979 357.108504519477 12.7330545535152
      vertex 178.916560699815 374.736084519406 12.7330545535152
   endloop
endfacet
facet normal 0.0 0.0 -1.0
   outer loop
      vertex 178.916560699815 374.736084519406 12.7330545535152
      vertex 185.43706069979 357.108504519477 12.7330545535152
      vertex 178.753460699816 372.767694519414 12.7330545535152
   endloop
endfacet
facet normal 0.0 0.0 -1.0
   outer loop
      vertex 178.753460699816 372.767694519414 12.7330545535152
      vertex 185.43706069979 357.108504519477 12.7330545535152
      vertex 177.960060699819 370.958914519421 12.7330545535152
   endloop
endfacet
facet normal 0.0 0.0 -1.0
   outer loop
      vertex 177.960060699819 370.958914519421 12.7330545535152
      vertex 185.43706069979 357.108504519477 12.7330545535152
      vertex 176.622360699825 369.505761519426 12.7330545535152
   endloop
endfacet
facet normal 0.0 0.0 -1.0
   outer loop
      vertex 176.622360699825 369.505761519426 12.7330545535152
      vertex 185.43706069979 357.108504519477 12.7330545535152
      vertex 174.885260699832 368.56570151943 12.7330545535152
   endloop
endfacet
facet normal 0.0 0.0 -1.0
   outer loop
      vertex 174.885260699832 368.56570151943 12.7330545535152
      vertex 185.43706069979 357.108504519477 12.7330545535152
      vertex 172.937060699839 368.240604519431 12.7330545535152
   endloop
endfacet
facet normal 0.0 0.0 -1.0
   outer loop
      vertex 172.937060699839 368.240604519431 12.7330545535152
      vertex 185.43706069979 357.108504519477 12.7330545535152
      vertex 173.781660699836 365.490604519442 12.7330545535152
   endloop
endfacet
facet normal 0.0 0.0 -1.0
   outer loop
      vertex 173.781660699836 365.490604519442 12.7330545535152
      vertex 185.43706069979 357.108504519477 12.7330545535152
      vertex 175.932060699828 362.530814519455 12.7330545535152
   endloop
endfacet
facet normal 0.0 0.0 -1.0
   outer loop
      vertex 175.932060699828 362.530814519455 12.7330545535152
      vertex 185.43706069979 357.108504519477 12.7330545535152
      vertex 178.650860699817 360.082804519465 12.7330545535152
   endloop
endfacet
facet normal 0.0 0.0 -1.0
   outer loop
      vertex 178.650860699817 360.082804519465 12.7330545535152
      vertex 185.43706069979 357.108504519477 12.7330545535152
      vertex 181.819160699805 358.253604519472 12.7330545535152
   endloop
endfacet
facet normal 0.0 0.0 -1.0
   outer loop
      vertex 181.819160699805 358.253604519472 12.7330545535152
      vertex 185.43706069979 357.108504519477 12.7330545535152
      vertex 185.298560699791 357.123004519477 12.7330545535152
   endloop
endfacet
facet normal 0.0 0.0 -1.0
   outer loop
      vertex 173.781660699836 365.490604519442 12.7330545535152
      vertex 172.526760699841 368.309072519431 12.7330545535152
      vertex 172.937060699839 368.240604519431 12.7330545535152
   endloop
endfacet
facet normal 0.0 0.0 -1.0
   outer loop
      vertex 172.52076069984 380.158804519384 12.7330545535152
      vertex 173.781660699835 382.990604519372 12.7330545535152
      vertex 173.924660699835 380.158804519384 12.7330545535152
   endloop
endfacet
facet normal -0.918214970739099 -0.396082399900066 0.0
   outer loop
      vertex 181.079960699806 376.678434519398 19.8830545534832
      vertex 180.298260699809 378.490604519391 15.2930545534992
      vertex 181.079960699806 376.678434519398 15.2930545534992
   endloop
endfacet
facet normal -0.918214970739099 -0.396082399900066 0.0
   outer loop
      vertex 180.298260699809 378.490604519391 15.2930545534992
      vertex 181.079960699806 376.678434519398 19.8830545534832
      vertex 180.298260699809 378.490604519391 19.8830545534832
   endloop
endfacet
facet normal -0.642747547062588 -0.766078057866838 0.0
   outer loop
      vertex 179.119760699814 380.073704519385 15.2930545534992
      vertex 177.60786069982 381.34220451938 19.8830545534832
      vertex 177.60786069982 381.34220451938 15.2930545534992
   endloop
endfacet
facet normal -0.642747547062588 -0.766078057866838 0.0
   outer loop
      vertex 177.60786069982 381.34220451938 19.8830545534832
      vertex 179.119760699814 380.073704519385 15.2930545534992
      vertex 179.119760699814 380.073704519385 19.8830545534832
   endloop
endfacet
facet normal 1.0 7.83502341042936e-014 0.0
   outer loop
      vertex 185.437060699788 386.185604519361 14.783194553507
      vertex 185.43706069979 364.042544519449 15.8652845535027
      vertex 185.43706069979 362.685644519454 14.783194553507
   endloop
endfacet
facet normal 1.0 7.83502341042936e-014 0.0
   outer loop
      vertex 185.43706069979 364.042544519449 15.8652845535027
      vertex 185.437060699788 386.185604519361 14.783194553507
      vertex 185.437060699792 386.111369376663 14.8001412086273
   endloop
endfacet
facet normal 1.0 7.83502341042936e-014 0.0
   outer loop
      vertex 185.43706069979 364.042544519449 15.8652845535027
      vertex 185.437060699792 386.111369376663 14.8001412086273
      vertex 185.437060699792 384.953404095237 15.0644474684893
   endloop
endfacet
facet normal 1.0 7.83502341042936e-014 0.0
   outer loop
      vertex 185.43706069979 364.042544519449 15.8652845535027
      vertex 185.437060699792 384.953404095237 15.0644474684893
      vertex 185.437060699788 384.493604519367 15.1693945535055
   endloop
endfacet
facet normal 1.0 7.83502341042936e-014 0.0
   outer loop
      vertex 185.43706069979 364.042544519449 15.8652845535027
      vertex 185.437060699788 384.493604519367 15.1693945535055
      vertex 185.437060699788 383.74060451937 16.7330545534992
   endloop
endfacet
facet normal 1.0 7.83502341042936e-014 0.0
   outer loop
      vertex 185.43706069979 364.042544519449 15.8652845535027
      vertex 185.437060699788 383.74060451937 16.7330545534992
      vertex 185.43706069979 364.042544519449 17.6008245534957
   endloop
endfacet
facet normal 1.0 7.83502341042936e-014 0.0
   outer loop
      vertex 185.43706069979 364.042544519449 17.6008245534957
      vertex 185.437060699788 383.74060451937 16.7330545534992
      vertex 185.437060699788 384.493604519367 18.296714553493
   endloop
endfacet
facet normal 1.0 7.83502341042936e-014 0.0
   outer loop
      vertex 185.43706069979 364.042544519449 17.6008245534957
      vertex 185.437060699788 384.493604519367 18.296714553493
      vertex 185.43706069979 362.685644519454 18.6829145534914
   endloop
endfacet
facet normal 1.0 7.83502341042936e-014 0.0
   outer loop
      vertex 185.43706069979 362.685644519454 18.6829145534914
      vertex 185.437060699788 384.493604519367 18.296714553493
      vertex 185.437060699788 385.705077416345 18.5732339582285
   endloop
endfacet
facet normal 1.0 7.83502341042936e-014 0.0
   outer loop
      vertex 185.43706069979 362.685644519454 18.6829145534914
      vertex 185.437060699788 385.705077416345 18.5732339582285
      vertex 185.437060699792 386.111369376663 18.6659678983712
   endloop
endfacet
facet normal 1.0 7.83502341042936e-014 0.0
   outer loop
      vertex 185.43706069979 362.685644519454 18.6829145534914
      vertex 185.437060699792 386.111369376663 18.6659678983712
      vertex 185.437060699788 386.185604519361 18.6829145534914
   endloop
endfacet
facet normal 1.0 7.83502341042936e-014 0.0
   outer loop
      vertex 185.437060699788 391.37270451934 12.7330545535152
      vertex 185.437060699788 386.185604519361 14.783194553507
      vertex 185.43706069979 357.108504519477 12.7330545535152
   endloop
endfacet
facet normal 1.0 7.83502341042936e-014 0.0
   outer loop
      vertex 185.437060699788 386.185604519361 14.783194553507
      vertex 185.437060699788 391.37270451934 12.7330545535152
      vertex 185.437060699788 387.542504519355 15.8652845535027
   endloop
endfacet
facet normal 1.0 7.83502341042936e-014 0.0
   outer loop
      vertex 185.437060699788 387.542504519355 15.8652845535027
      vertex 185.437060699788 391.37270451934 12.7330545535152
      vertex 185.437060699788 391.37270451934 19.8830545534832
   endloop
endfacet
facet normal 1.0 7.83502341042936e-014 0.0
   outer loop
      vertex 185.43706069979 357.108504519477 12.7330545535152
      vertex 185.437060699788 386.185604519361 14.783194553507
      vertex 185.43706069979 362.685644519454 14.783194553507
   endloop
endfacet
facet normal 1.0 7.83502341042936e-014 0.0
   outer loop
      vertex 185.437060699788 387.542504519355 15.8652845535027
      vertex 185.437060699788 391.37270451934 19.8830545534832
      vertex 185.437060699788 387.542504519355 17.6008245534957
   endloop
endfacet
facet normal 1.0 7.83502341042936e-014 0.0
   outer loop
      vertex 185.437060699788 387.542504519355 17.6008245534957
      vertex 185.437060699788 391.37270451934 19.8830545534832
      vertex 185.437060699788 386.185604519361 18.6829145534914
   endloop
endfacet
facet normal 1.0 7.83502341042936e-014 0.0
   outer loop
      vertex 185.43706069979 357.108504519477 12.7330545535152
      vertex 185.43706069979 360.993624519461 15.1693945535055
      vertex 185.43706069979 357.108504519477 19.8830545534832
   endloop
endfacet
facet normal 1.0 7.83502341042936e-014 0.0
   outer loop
      vertex 185.43706069979 360.993624519461 15.1693945535055
      vertex 185.43706069979 357.108504519477 12.7330545535152
      vertex 185.43706069979 362.685644519454 14.783194553507
   endloop
endfacet
facet normal 1.0 7.83502341042936e-014 0.0
   outer loop
      vertex 185.43706069979 360.993624519461 15.1693945535055
      vertex 185.43706069979 362.685644519454 14.783194553507
      vertex 185.43706069979 362.636776542259 14.7943486261058
   endloop
endfacet
facet normal 1.0 7.83502341042936e-014 0.0
   outer loop
      vertex 185.43706069979 360.993624519461 15.1693945535055
      vertex 185.43706069979 362.636776542259 14.7943486261058
      vertex 185.43706069979 361.478797573302 15.0586548859675
   endloop
endfacet
facet normal 1.0 7.83502341042936e-014 0.0
   outer loop
      vertex 185.43706069979 357.108504519477 19.8830545534832
      vertex 185.43706069979 360.993624519461 15.1693945535055
      vertex 185.43706069979 360.240604519464 16.7330545534992
   endloop
endfacet
facet normal 1.0 7.83502341042936e-014 0.0
   outer loop
      vertex 185.43706069979 357.108504519477 19.8830545534832
      vertex 185.43706069979 360.240604519464 16.7330545534992
      vertex 185.43706069979 360.993624519461 18.296714553493
   endloop
endfacet
facet normal 1.0 7.83502341042936e-014 0.0
   outer loop
      vertex 185.43706069979 357.108504519477 19.8830545534832
      vertex 185.43706069979 360.993624519461 18.296714553493
      vertex 185.43706069979 362.034683992126 18.5343341846694
   endloop
endfacet
facet normal 1.0 7.83502341042936e-014 0.0
   outer loop
      vertex 185.43706069979 357.108504519477 19.8830545534832
      vertex 185.43706069979 362.034683992126 18.5343341846694
      vertex 185.43706069979 362.636776542259 18.6717604808926
   endloop
endfacet
facet normal 1.0 7.83502341042936e-014 0.0
   outer loop
      vertex 185.43706069979 357.108504519477 19.8830545534832
      vertex 185.43706069979 362.636776542259 18.6717604808926
      vertex 185.43706069979 362.685644519454 18.6829145534914
   endloop
endfacet
facet normal 1.0 7.83502341042936e-014 0.0
   outer loop
      vertex 185.43706069979 357.108504519477 19.8830545534832
      vertex 185.43706069979 362.685644519454 18.6829145534914
      vertex 185.437060699788 386.185604519361 18.6829145534914
   endloop
endfacet
facet normal 1.0 7.83502341042936e-014 0.0
   outer loop
      vertex 185.43706069979 357.108504519477 19.8830545534832
      vertex 185.437060699788 386.185604519361 18.6829145534914
      vertex 185.437060699788 391.37270451934 19.8830545534832
   endloop
endfacet
facet normal 1.84957337480163e-007 0.222518002918857 0.974928581167343
   outer loop
      vertex 174.87366069983 384.493604519366 15.1693945535055
      vertex 185.437060699792 384.953404095237 15.0644474684893
      vertex 175.932060699826 385.950404519361 14.8368945535068
   endloop
endfacet
facet normal 1.84957337480163e-007 0.222518002918857 0.974928581167343
   outer loop
      vertex 185.437060699792 384.953404095237 15.0644474684893
      vertex 174.87366069983 384.493604519366 15.1693945535055
      vertex 185.437060699788 384.493604519367 15.1693945535055
   endloop
endfacet
facet normal 1.04379360784389e-007 0.222585565606498 -0.974913158175447
   outer loop
      vertex 185.437060699792 386.111369376663 18.6659678983712
      vertex 176.193260699825 386.18560451936 18.6829145534914
      vertex 185.437060699788 386.185604519361 18.6829145534914
   endloop
endfacet
facet normal 1.04379360784389e-007 0.222585565606498 -0.974913158175447
   outer loop
      vertex 176.193260699825 386.18560451936 18.6829145534914
      vertex 185.437060699792 386.111369376663 18.6659678983712
      vertex 175.932060699826 385.950404519361 18.6292145534916
   endloop
endfacet
facet normal 1.95151154777699e-006 0.222527528589548 0.974926406974403
   outer loop
      vertex 185.437060699792 384.953404095237 15.0644474684893
      vertex 185.437060699792 386.111369376663 14.8001412086273
      vertex 175.932060699826 385.950404519361 14.8368945535068
   endloop
endfacet
facet normal 4.66796284772407e-014 -0.623489223763095 0.781831943483568
   outer loop
      vertex 177.700260699819 387.542504519354 15.8652845535027
      vertex 185.437060699788 386.185604519361 14.783194553507
      vertex 185.437060699788 387.542504519355 15.8652845535027
   endloop
endfacet
facet normal 4.66796284772407e-014 -0.623489223763095 0.781831943483568
   outer loop
      vertex 185.437060699788 386.185604519361 14.783194553507
      vertex 177.700260699819 387.542504519354 15.8652845535027
      vertex 176.193260699825 386.18560451936 14.783194553507
   endloop
endfacet
facet normal 7.85015872124484e-014 -1.0 -1.14011064716335e-029
   outer loop
      vertex 185.437060699788 387.542504519355 15.8652845535027
      vertex 177.700260699819 387.542504519354 17.6008245534957
      vertex 177.700260699819 387.542504519354 15.8652845535027
   endloop
endfacet
facet normal 7.85015872124484e-014 -1.0 -1.14011064716335e-029
   outer loop
      vertex 177.700260699819 387.542504519354 17.6008245534957
      vertex 185.437060699788 387.542504519355 15.8652845535027
      vertex 185.437060699788 387.542504519355 17.6008245534957
   endloop
endfacet
facet normal 4.67755592108031e-014 -0.623489223763095 -0.781831943483568
   outer loop
      vertex 185.437060699788 386.185604519361 18.6829145534914
      vertex 177.700260699819 387.542504519354 17.6008245534957
      vertex 185.437060699788 387.542504519355 17.6008245534957
   endloop
endfacet
facet normal 4.67755592108031e-014 -0.623489223763095 -0.781831943483568
   outer loop
      vertex 177.700260699819 387.542504519354 17.6008245534957
      vertex 185.437060699788 386.185604519361 18.6829145534914
      vertex 176.193260699825 386.18560451936 18.6829145534914
   endloop
endfacet
facet normal -1.68876575313498e-014 0.222527528589972 -0.974926406976259
   outer loop
      vertex 174.87366069983 384.493604519366 18.296714553493
      vertex 185.437060699788 385.705077416345 18.5732339582285
      vertex 185.437060699788 384.493604519367 18.296714553493
   endloop
endfacet
facet normal 1.89060026865075e-006 0.222516829753877 -0.974928848928326
   outer loop
      vertex 185.437060699788 385.705077416345 18.5732339582285
      vertex 175.932060699826 385.950404519361 18.6292145534916
      vertex 185.437060699792 386.111369376663 18.6659678983712
   endloop
endfacet
facet normal 1.89060026865075e-006 0.222516829753877 -0.974928848928326
   outer loop
      vertex 175.932060699826 385.950404519361 18.6292145534916
      vertex 185.437060699788 385.705077416345 18.5732339582285
      vertex 174.87366069983 384.493604519366 18.296714553493
   endloop
endfacet
facet normal -7.105136711898e-014 0.900973140381608 0.433874867111364
   outer loop
      vertex 185.437060699788 383.74060451937 16.7330545534992
      vertex 174.87366069983 384.493604519366 15.1693945535055
      vertex 174.326560699833 383.740604519369 16.7330545534992
   endloop
endfacet
facet normal -7.105136711898e-014 0.900973140381608 0.433874867111364
   outer loop
      vertex 174.87366069983 384.493604519366 15.1693945535055
      vertex 185.437060699788 383.74060451937 16.7330545534992
      vertex 185.437060699788 384.493604519367 15.1693945535055
   endloop
endfacet
facet normal 1.04379360721475e-007 0.222585565606491 0.974913158175449
   outer loop
      vertex 176.193260699825 386.18560451936 14.783194553507
      vertex 185.437060699792 386.111369376663 14.8001412086273
      vertex 185.437060699788 386.185604519361 14.783194553507
   endloop
endfacet
facet normal 1.04379360721475e-007 0.222585565606491 0.974913158175449
   outer loop
      vertex 185.437060699792 386.111369376663 14.8001412086273
      vertex 176.193260699825 386.18560451936 14.783194553507
      vertex 175.932060699826 385.950404519361 14.8368945535068
   endloop
endfacet
facet normal -7.09893483758288e-014 0.900973140381608 -0.433874867111364
   outer loop
      vertex 174.87366069983 384.493604519366 18.296714553493
      vertex 185.437060699788 383.74060451937 16.7330545534992
      vertex 174.326560699833 383.740604519369 16.7330545534992
   endloop
endfacet
facet normal -7.09893483758288e-014 0.900973140381608 -0.433874867111364
   outer loop
      vertex 185.437060699788 383.74060451937 16.7330545534992
      vertex 174.87366069983 384.493604519366 18.296714553493
      vertex 185.437060699788 384.493604519367 18.296714553493
   endloop
endfacet
facet normal 7.42296652381787e-009 0.222524818685749 0.974927025509538
   outer loop
      vertex 177.639260699821 360.993624519461 15.1693945535055
      vertex 185.43706069979 361.478797573302 15.0586548859675
      vertex 175.932060699828 362.530814519455 14.8185345535069
   endloop
endfacet
facet normal 7.42296652381787e-009 0.222524818685749 0.974927025509538
   outer loop
      vertex 185.43706069979 361.478797573302 15.0586548859675
      vertex 177.639260699821 360.993624519461 15.1693945535055
      vertex 185.43706069979 360.993624519461 15.1693945535055
   endloop
endfacet
facet normal 4.60238664924658e-008 0.222524859433017 -0.974927016209067
   outer loop
      vertex 185.43706069979 362.034683992126 18.5343341846694
      vertex 175.932060699828 362.530814519455 18.6475745534916
      vertex 185.43706069979 362.636776542259 18.6717604808926
   endloop
endfacet
facet normal 4.60238664924658e-008 0.222524859433017 -0.974927016209067
   outer loop
      vertex 175.932060699828 362.530814519455 18.6475745534916
      vertex 185.43706069979 362.034683992126 18.5343341846694
      vertex 177.639260699821 360.993624519461 18.296714553493
   endloop
endfacet
facet normal -1.6693220241379e-014 0.222525028519233 -0.974926977615511
   outer loop
      vertex 185.43706069979 360.993624519461 18.296714553493
      vertex 177.639260699821 360.993624519461 18.296714553493
      vertex 185.43706069979 362.034683992126 18.5343341846694
   endloop
endfacet
facet normal 3.21241869323257e-031 -8.97786500140112e-032 1.0
   outer loop
      vertex 185.298560699788 391.35820451934 19.8830545534832
      vertex 185.43706069979 357.108504519477 19.8830545534832
      vertex 185.437060699788 391.37270451934 19.8830545534832
   endloop
endfacet
facet normal 3.21241869323257e-031 -8.97786500140112e-032 1.0
   outer loop
      vertex 185.43706069979 357.108504519477 19.8830545534832
      vertex 185.298560699788 391.35820451934 19.8830545534832
      vertex 181.819160699802 390.227604519344 19.8830545534832
   endloop
endfacet
facet normal 3.21241869323257e-031 -8.97786500140112e-032 1.0
   outer loop
      vertex 185.43706069979 357.108504519477 19.8830545534832
      vertex 181.819160699802 390.227604519344 19.8830545534832
      vertex 178.650860699815 388.398404519351 19.8830545534832
   endloop
endfacet
facet normal 3.21241869323257e-031 -8.97786500140112e-032 1.0
   outer loop
      vertex 185.43706069979 357.108504519477 19.8830545534832
      vertex 178.650860699815 388.398404519351 19.8830545534832
      vertex 181.079960699806 376.678434519398 19.8830545534832
   endloop
endfacet
facet normal 3.21241869323257e-031 -8.97786500140112e-032 1.0
   outer loop
      vertex 181.079960699806 376.678434519398 19.8830545534832
      vertex 178.650860699815 388.398404519351 19.8830545534832
      vertex 180.298260699809 378.490604519391 19.8830545534832
   endloop
endfacet
facet normal 3.21241869323257e-031 -8.97786500140112e-032 1.0
   outer loop
      vertex 180.298260699809 378.490604519391 19.8830545534832
      vertex 178.650860699815 388.398404519351 19.8830545534832
      vertex 175.932060699826 385.950404519361 19.8830545534832
   endloop
endfacet
facet normal 3.21241869323257e-031 -8.97786500140112e-032 1.0
   outer loop
      vertex 180.298260699809 378.490604519391 19.8830545534832
      vertex 175.932060699826 385.950404519361 19.8830545534832
      vertex 179.119760699814 380.073704519385 19.8830545534832
   endloop
endfacet
facet normal 3.21241869323257e-031 -8.97786500140112e-032 1.0
   outer loop
      vertex 179.119760699814 380.073704519385 19.8830545534832
      vertex 175.932060699826 385.950404519361 19.8830545534832
      vertex 177.60786069982 381.34220451938 19.8830545534832
   endloop
endfacet
facet normal 3.21241869323257e-031 -8.97786500140112e-032 1.0
   outer loop
      vertex 177.60786069982 381.34220451938 19.8830545534832
      vertex 175.932060699826 385.950404519361 19.8830545534832
      vertex 175.844260699827 382.228004519376 19.8830545534832
   endloop
endfacet
facet normal 3.21241869323257e-031 -8.97786500140112e-032 1.0
   outer loop
      vertex 175.844260699827 382.228004519376 19.8830545534832
      vertex 175.932060699826 385.950404519361 19.8830545534832
      vertex 173.781660699835 382.990604519372 19.8830545534832
   endloop
endfacet
facet normal 3.21241869323257e-031 -8.97786500140112e-032 1.0
   outer loop
      vertex 175.844260699827 382.228004519376 19.8830545534832
      vertex 173.781660699835 382.990604519372 19.8830545534832
      vertex 173.923860699834 382.683104519374 19.8830545534832
   endloop
endfacet
facet normal 3.21241869323257e-031 -8.97786500140112e-032 1.0
   outer loop
      vertex 173.923860699834 382.683104519374 19.8830545534832
      vertex 173.781660699835 382.990604519372 19.8830545534832
      vertex 173.644760699835 382.683104519374 19.8830545534832
   endloop
endfacet
facet normal 3.21241869323257e-031 -8.97786500140112e-032 1.0
   outer loop
      vertex 185.43706069979 357.108504519477 19.8830545534832
      vertex 181.079960699806 376.678434519398 19.8830545534832
      vertex 181.422660699805 374.734834519406 19.8830545534832
   endloop
endfacet
facet normal 3.21241869323257e-031 -8.97786500140112e-032 1.0
   outer loop
      vertex 185.43706069979 357.108504519477 19.8830545534832
      vertex 181.422660699805 374.734834519406 19.8830545534832
      vertex 181.307960699806 372.764594519414 19.8830545534832
   endloop
endfacet
facet normal 3.21241869323257e-031 -8.97786500140112e-032 1.0
   outer loop
      vertex 185.43706069979 357.108504519477 19.8830545534832
      vertex 181.307960699806 372.764594519414 19.8830545534832
      vertex 180.741860699808 370.873924519421 19.8830545534832
   endloop
endfacet
facet normal 3.21241869323257e-031 -8.97786500140112e-032 1.0
   outer loop
      vertex 185.43706069979 357.108504519477 19.8830545534832
      vertex 180.741860699808 370.873924519421 19.8830545534832
      vertex 179.755060699812 369.164756519428 19.8830545534832
   endloop
endfacet
facet normal 3.21241869323257e-031 -8.97786500140112e-032 1.0
   outer loop
      vertex 185.43706069979 357.108504519477 19.8830545534832
      vertex 179.755060699812 369.164756519428 19.8830545534832
      vertex 178.400760699818 367.729224519434 19.8830545534832
   endloop
endfacet
facet normal 3.21241869323257e-031 -8.97786500140112e-032 1.0
   outer loop
      vertex 185.43706069979 357.108504519477 19.8830545534832
      vertex 178.400760699818 367.729224519434 19.8830545534832
      vertex 176.751860699824 366.644724519438 19.8830545534832
   endloop
endfacet
facet normal 3.21241869323257e-031 -8.97786500140112e-032 1.0
   outer loop
      vertex 185.43706069979 357.108504519477 19.8830545534832
      vertex 176.751860699824 366.644724519438 19.8830545534832
      vertex 174.897260699832 365.96972451944 19.8830545534832
   endloop
endfacet
facet normal 3.21241869323257e-031 -8.97786500140112e-032 1.0
   outer loop
      vertex 185.43706069979 357.108504519477 19.8830545534832
      vertex 174.897260699832 365.96972451944 19.8830545534832
      vertex 173.634060699837 365.822074519441 19.8830545534832
   endloop
endfacet
facet normal 3.21241869323257e-031 -8.97786500140112e-032 1.0
   outer loop
      vertex 185.43706069979 357.108504519477 19.8830545534832
      vertex 173.634060699837 365.822074519441 19.8830545534832
      vertex 173.781660699836 365.490604519442 19.8830545534832
   endloop
endfacet
facet normal 3.21241869323257e-031 -8.97786500140112e-032 1.0
   outer loop
      vertex 185.43706069979 357.108504519477 19.8830545534832
      vertex 173.781660699836 365.490604519442 19.8830545534832
      vertex 175.932060699828 362.530814519455 19.8830545534832
   endloop
endfacet
facet normal 3.21241869323257e-031 -8.97786500140112e-032 1.0
   outer loop
      vertex 185.43706069979 357.108504519477 19.8830545534832
      vertex 175.932060699828 362.530814519455 19.8830545534832
      vertex 178.650860699817 360.082804519465 19.8830545534832
   endloop
endfacet
facet normal 3.21241869323257e-031 -8.97786500140112e-032 1.0
   outer loop
      vertex 185.43706069979 357.108504519477 19.8830545534832
      vertex 178.650860699817 360.082804519465 19.8830545534832
      vertex 181.819160699805 358.253604519472 19.8830545534832
   endloop
endfacet
facet normal 3.21241869323257e-031 -8.97786500140112e-032 1.0
   outer loop
      vertex 185.43706069979 357.108504519477 19.8830545534832
      vertex 181.819160699805 358.253604519472 19.8830545534832
      vertex 185.298560699791 357.123004519477 19.8830545534832
   endloop
endfacet
facet normal 0.0 0.0 1.0
   outer loop
      vertex 173.634060699837 365.822074519441 15.2930545534992
      vertex 172.937060699839 368.240604519431 15.2930545534992
      vertex 172.526760699841 368.309072519431 15.2930545534992
   endloop
endfacet
facet normal 0.0 0.0 1.0
   outer loop
      vertex 172.937060699839 368.240604519431 15.2930545534992
      vertex 173.634060699837 365.822074519441 15.2930545534992
      vertex 178.400760699818 367.729224519434 15.2930545534992
   endloop
endfacet
facet normal 0.0 0.0 1.0
   outer loop
      vertex 178.400760699818 367.729224519434 15.2930545534992
      vertex 173.634060699837 365.822074519441 15.2930545534992
      vertex 176.751860699824 366.644724519438 15.2930545534992
   endloop
endfacet
facet normal 0.0 0.0 1.0
   outer loop
      vertex 176.751860699824 366.644724519438 15.2930545534992
      vertex 173.634060699837 365.822074519441 15.2930545534992
      vertex 174.897260699832 365.96972451944 15.2930545534992
   endloop
endfacet
facet normal 0.0 0.0 1.0
   outer loop
      vertex 172.52076069984 380.158804519384 15.2930545534992
      vertex 173.923860699834 382.683104519374 15.2930545534992
      vertex 173.644760699835 382.683104519374 15.2930545534992
   endloop
endfacet
facet normal 0.0 0.0 1.0
   outer loop
      vertex 173.923860699834 382.683104519374 15.2930545534992
      vertex 172.52076069984 380.158804519384 15.2930545534992
      vertex 175.844260699827 382.228004519376 15.2930545534992
   endloop
endfacet
facet normal 0.0 0.0 1.0
   outer loop
      vertex 175.844260699827 382.228004519376 15.2930545534992
      vertex 172.52076069984 380.158804519384 15.2930545534992
      vertex 177.60786069982 381.34220451938 15.2930545534992
   endloop
endfacet
facet normal 0.0 0.0 1.0
   outer loop
      vertex 177.60786069982 381.34220451938 15.2930545534992
      vertex 172.52076069984 380.158804519384 15.2930545534992
      vertex 173.924660699835 380.158804519384 15.2930545534992
   endloop
endfacet
facet normal 0.0 0.0 1.0
   outer loop
      vertex 177.60786069982 381.34220451938 15.2930545534992
      vertex 173.924660699835 380.158804519384 15.2930545534992
      vertex 179.119760699814 380.073704519385 15.2930545534992
   endloop
endfacet
facet normal 0.0 0.0 1.0
   outer loop
      vertex 179.119760699814 380.073704519385 15.2930545534992
      vertex 173.924660699835 380.158804519384 15.2930545534992
      vertex 175.792760699827 379.517404519387 15.2930545534992
   endloop
endfacet
facet normal 0.0 0.0 1.0
   outer loop
      vertex 179.119760699814 380.073704519385 15.2930545534992
      vertex 175.792760699827 379.517404519387 15.2930545534992
      vertex 180.298260699809 378.490604519391 15.2930545534992
   endloop
endfacet
facet normal 0.0 0.0 1.0
   outer loop
      vertex 180.298260699809 378.490604519391 15.2930545534992
      vertex 175.792760699827 379.517404519387 15.2930545534992
      vertex 177.351360699821 378.304294519392 15.2930545534992
   endloop
endfacet
facet normal 0.0 0.0 1.0
   outer loop
      vertex 180.298260699809 378.490604519391 15.2930545534992
      vertex 177.351360699821 378.304294519392 15.2930545534992
      vertex 181.079960699806 376.678434519398 15.2930545534992
   endloop
endfacet
facet normal 0.0 0.0 1.0
   outer loop
      vertex 181.079960699806 376.678434519398 15.2930545534992
      vertex 177.351360699821 378.304294519392 15.2930545534992
      vertex 178.431660699817 376.650774519398 15.2930545534992
   endloop
endfacet
facet normal 0.0 0.0 1.0
   outer loop
      vertex 181.079960699806 376.678434519398 15.2930545534992
      vertex 178.431660699817 376.650774519398 15.2930545534992
      vertex 181.422660699805 374.734834519406 15.2930545534992
   endloop
endfacet
facet normal 0.0 0.0 1.0
   outer loop
      vertex 181.422660699805 374.734834519406 15.2930545534992
      vertex 178.431660699817 376.650774519398 15.2930545534992
      vertex 178.916560699815 374.736084519406 15.2930545534992
   endloop
endfacet
facet normal 0.0 0.0 1.0
   outer loop
      vertex 181.422660699805 374.734834519406 15.2930545534992
      vertex 178.916560699815 374.736084519406 15.2930545534992
      vertex 178.753460699816 372.767694519414 15.2930545534992
   endloop
endfacet
facet normal 0.0 0.0 1.0
   outer loop
      vertex 181.422660699805 374.734834519406 15.2930545534992
      vertex 178.753460699816 372.767694519414 15.2930545534992
      vertex 181.307960699806 372.764594519414 15.2930545534992
   endloop
endfacet
facet normal 0.0 0.0 1.0
   outer loop
      vertex 181.307960699806 372.764594519414 15.2930545534992
      vertex 178.753460699816 372.767694519414 15.2930545534992
      vertex 177.960060699819 370.958914519421 15.2930545534992
   endloop
endfacet
facet normal 0.0 0.0 1.0
   outer loop
      vertex 181.307960699806 372.764594519414 15.2930545534992
      vertex 177.960060699819 370.958914519421 15.2930545534992
      vertex 180.741860699808 370.873924519421 15.2930545534992
   endloop
endfacet
facet normal 0.0 0.0 1.0
   outer loop
      vertex 180.741860699808 370.873924519421 15.2930545534992
      vertex 177.960060699819 370.958914519421 15.2930545534992
      vertex 176.622360699825 369.505761519426 15.2930545534992
   endloop
endfacet
facet normal 0.0 0.0 1.0
   outer loop
      vertex 180.741860699808 370.873924519421 15.2930545534992
      vertex 176.622360699825 369.505761519426 15.2930545534992
      vertex 179.755060699812 369.164756519428 15.2930545534992
   endloop
endfacet
facet normal 0.0 0.0 1.0
   outer loop
      vertex 179.755060699812 369.164756519428 15.2930545534992
      vertex 176.622360699825 369.505761519426 15.2930545534992
      vertex 174.885260699832 368.56570151943 15.2930545534992
   endloop
endfacet
facet normal 0.0 0.0 1.0
   outer loop
      vertex 179.755060699812 369.164756519428 15.2930545534992
      vertex 174.885260699832 368.56570151943 15.2930545534992
      vertex 178.400760699818 367.729224519434 15.2930545534992
   endloop
endfacet
facet normal 0.0 0.0 1.0
   outer loop
      vertex 178.400760699818 367.729224519434 15.2930545534992
      vertex 174.885260699832 368.56570151943 15.2930545534992
      vertex 172.937060699839 368.240604519431 15.2930545534992
   endloop
endfacet
endsolid JHeadMont
